<?xml version="1.0" encoding="UTF-8"?>
<svg id="Layer_2" data-name="Layer 2" xmlns="http://www.w3.org/2000/svg" viewBox="0 0 1000 567.98">
  <defs>
    <style>
      .cls-1 {
        stroke-width: 0px;
      }
    </style>
  </defs>
  <g id="Layer_1-2" data-name="Layer 1">
    <path class="cls-1" d="M933.46,237.52v45.33c0,2.37-1.92,4.29-4.29,4.29h-59.72c-1.55,0-2.81-1.26-2.81-2.81v-11.89c0-1.36,1.11-2.47,2.47-2.47h10.34c1.4,0,2.54-1.14,2.54-2.54v-20.88c0-1.98-1.6-3.58-3.58-3.58h-11.77v-23.34c0-2.02,1.64-3.66,3.66-3.66h8.74c1.63,0,2.95-1.32,2.95-2.95v-21.11c0-1.62-1.32-2.94-2.94-2.94h-9.8c-1.44,0-2.61-1.17-2.61-2.61v-21.93c0-1.36,1.1-2.45,2.45-2.45h9.83c1.69,0,3.07-1.37,3.07-3.07v-21.48c0-1.35-1.1-2.45-2.45-2.45h-14.21c-.74,0-1.34-.6-1.34-1.34v-24.41c0-.69-.56-1.25-1.25-1.25h-5.52c-1.23,0-2.23,1-2.23,2.23v22.01c0,1.52-1.23,2.76-2.76,2.76h-30.53c-1.5,0-2.71-1.21-2.71-2.71v-13.37c0-1.06-.86-1.92-1.92-1.92h-4.29c-1.54,0-2.79,1.25-2.79,2.79v12.49c0,1.5-1.22,2.72-2.72,2.72h-3.63c-1.95,0-3.54,1.58-3.54,3.54v18.99c0,2.47-2,4.47-4.47,4.47h-9.7c-1.63,0-2.95,1.32-2.95,2.95v21.4c0,1.47,1.19,2.65,2.65,2.65h11.73c1.51,0,2.73,1.22,2.73,2.73v21.76c0,1.48-1.2,2.67-2.67,2.67h-28.83c-1.22,0-2.2-.99-2.2-2.2v-51.46c0-.51-.41-.91-.91-.91h0c-4.47,0-8.09,3.62-8.09,8.09v12.93c0,1.16-.94,2.11-2.11,2.11h-21.01c-.97,0-1.75-.78-1.75-1.75v-11.25c0-.85-.69-1.54-1.54-1.54h-41.6c-12.92,0-23.4-10.48-23.4-23.4v-18.93c0-1.48-1.2-2.68-2.68-2.68h-11.43c-.6,0-1.09-.49-1.09-1.09v-15.03c0-3.06-2.48-5.54-5.54-5.54h-26.59c-2.14,0-3.87,1.73-3.87,3.87v13.23c0,2.52-2.04,4.56-4.56,4.56h-4.46c-3.23,0-5.85-2.62-5.85-5.85V27.61c0-.81-.66-1.47-1.47-1.47h-29.62c-1.03,0-1.86-.83-1.86-1.86v-15.3c0-4.79-3.75-8.71-8.47-8.98-.29-.02-.53.22-.53.51v24.01c0,.89-.72,1.62-1.62,1.62h-22.12c-1.8,0-3.27,1.46-3.27,3.27v52.22c0,4.61-3.74,8.35-8.35,8.35h-17.85c-25.3,0-45.8,20.51-45.8,45.8v51.57c0,.9-.73,1.62-1.62,1.62h-14.33c-1.13,0-2.04-.91-2.04-2.04v-15.4c0-.39-.16-.77-.43-1.04l-7.28-7.24c-.48-.47-1.29-.14-1.29.54v23.48c0,.94-.76,1.7-1.7,1.7h-4.76c-1.4,0-2.54-1.14-2.54-2.54v-14.36c0-.62-.24-1.22-.67-1.68l-7-7.3c-.48-.5-1.33-.16-1.33.53v22.95c0,1.32-1.07,2.39-2.39,2.39h-3.79c-1.56,0-2.82,1.26-2.82,2.82v29.46c0,2.05-1.67,3.72-3.72,3.72h-3.16c-1.11,0-2.01-.9-2.01-2.01v-14.8c0-.66-.54-1.2-1.2-1.2h0c-4.31,0-7.8,3.49-7.8,7.8v7.71c0,1.37-1.11,2.49-2.49,2.49h-22.52c-1.17,0-2.12-.95-2.12-2.12v-67.7c0-1.67-1.36-3.03-3.03-3.03h-11.39c-1.98,0-3.58-1.6-3.58-3.58v-45.61c0-4.68-3.79-8.47-8.47-8.47h0c-.29,0-.53.24-.53.53v20.82c0,.63-.51,1.15-1.15,1.15h-40.99c-1.58,0-2.86,1.28-2.86,2.86v29.59c0,1.5-1.21,2.71-2.71,2.71h-8.94c-3.5,0-6.35-2.84-6.35-6.35v-16.92c0-1.6,1.29-2.89,2.89-2.89h0c.61,0,1.11-.5,1.11-1.11v-6.28c0-.89-.72-1.61-1.61-1.61h-10.69c-.39,0-.7-.31-.7-.7v-14.04c0-1.8,1.46-3.26,3.26-3.26h0c.41,0,.74-.33.74-.74v-7.7c0-.31-.25-.56-.56-.56h-12.94c0-2.4,1.94-4.34,4.34-4.34h.28c.49,0,.88-.39.88-.88v-5.87c0-1.24-1.01-2.25-2.25-2.25h-7.75c-1.93,0-3.5-1.57-3.5-3.5v-8.17c0-1.42-1.15-2.58-2.58-2.58h-13.3c-1.17,0-2.12.95-2.12,2.12v8.08c0,2.23-1.81,4.05-4.05,4.05h-9.79c-.79,0-1.44.64-1.44,1.44v6.49c0,.59.48,1.07,1.07,1.07h0c2.32,0,4.2,1.88,4.2,4.2v.14h-11.78c-.4,0-.72.32-.72.72v7.41c0,.48.39.87.87.87h.32c1.55,0,2.81,1.26,2.81,2.81v14.42c0,.43-.35.77-.77.77h-11.97c-.14,0-.26.12-.26.26v8.63c0,.06.05.12.12.12h0c2.14,0,3.88,1.74,3.88,3.88v130.98c0,5.05-4.09,9.14-9.14,9.14h-4.89c-2.19,0-3.97,1.78-3.97,3.97v15.03c0,4.42-3.58,8-8,8h-4.03c-3.3,0-5.98,2.68-5.98,5.98v7.51c0,7.46-6.05,13.51-13.51,13.51h-8.88c-3.53,0-6.4-2.86-6.4-6.4v-116.81c0-11.48-9.31-20.79-20.79-20.79h0c-2.44,0-4.42-1.98-4.42-4.42v-5.51c0-9.11-7.39-16.5-16.5-16.5h0c-10.77,0-19.5,8.73-19.5,19.5v4.39c0,1.39-1.13,2.52-2.52,2.52h-3.63c-1.57,0-2.84,1.27-2.84,2.84v26.03c0,4.03-3.26,7.29-7.29,7.29H0v351.84h66.54v-1h293.46v1h45v-1h324v1h72v-1h63v1h72v-1h64V170.98h0c-36.75,0-66.54,29.79-66.54,66.54Z"/>
  </g>
</svg>