<?xml version="1.0" encoding="UTF-8" standalone="no"?>
<svg
   version="1.0"
   width="526.64215pt"
   height="416.66528pt"
   viewBox="0 0 526.64215 416.66528"
   preserveAspectRatio="none"
   id="svg5"
   xmlns="http://www.w3.org/2000/svg"
   xmlns:svg="http://www.w3.org/2000/svg">
  <defs
     id="defs5" />
  <metadata
     id="metadata1">
Created by potrace 1.15, written by Peter Selinger 2001-2017
</metadata>
  <g
     transform="matrix(0.1,0,0,-0.1,-715.15178,460.93318)"
     fill="#000000"
     stroke="none"
     id="g5">
    <path
       d="m 10119,4555 c -9,-9 -467,-28 -564,-24 -99,5 -276,-2 -301,-11 -14,-6 -36,-10 -50,-10 -13,0 -32,-4 -42,-9 -26,-14 -148,-33 -230,-37 -41,-1 -88,-7 -105,-12 -18,-5 -61,-8 -97,-7 -36,1 -74,-2 -85,-6 -26,-9 -161,-22 -250,-24 -38,-1 -194,-5 -346,-9 -193,-6 -283,-5 -297,3 -15,8 -33,7 -69,-3 -26,-8 -75,-22 -108,-31 -33,-9 -80,-26 -105,-38 -24,-12 -49,-22 -54,-22 -17,0 -18,-31 -3,-47 12,-12 13,-18 1,-39 -7,-13 -10,-34 -7,-46 3,-12 -2,-36 -10,-52 -9,-18 -11,-33 -6,-37 5,-3 9,-20 9,-37 0,-18 4,-47 9,-64 8,-26 6,-37 -10,-57 -13,-17 -15,-26 -7,-28 8,-3 5,-18 -10,-49 -12,-25 -24,-59 -26,-76 -1,-17 -10,-41 -20,-54 -9,-13 -16,-43 -16,-67 0,-23 -6,-53 -14,-65 -8,-12 -17,-42 -21,-67 -9,-75 -11,-82 -26,-94 -19,-15 -23,-79 -16,-256 1,-19 -2,-45 -6,-56 -6,-17 -3,-23 14,-27 11,-3 19,-10 16,-14 -8,-12 13,-71 36,-103 20,-29 22,-58 5,-97 -6,-15 -13,-39 -14,-53 -2,-13 -24,-44 -49,-68 -49,-49 -50,-52 -33,-116 10,-37 9,-50 -2,-71 -11,-21 -11,-28 -2,-34 7,-4 13,-16 13,-27 -1,-10 -1,-34 -1,-53 -1,-18 4,-39 9,-44 6,-6 11,-20 11,-32 0,-11 11,-37 26,-58 23,-34 24,-39 10,-53 -22,-22 -20,-33 8,-40 18,-4 25,-14 30,-45 3,-21 11,-39 17,-39 6,0 7,-6 1,-16 -5,-10 -6,-32 -1,-53 6,-26 4,-40 -7,-52 -8,-9 -18,-33 -21,-53 -5,-31 -3,-36 15,-36 23,0 66,-81 77,-147 6,-35 3,-45 -17,-65 -30,-29 -50,-68 -44,-84 3,-7 -2,-18 -10,-24 -8,-7 -14,-17 -14,-22 0,-5 -10,-22 -21,-38 -12,-16 -21,-41 -20,-57 1,-15 2,-41 2,-56 0,-16 6,-39 14,-51 24,-35 29,-94 11,-121 -22,-34 -20,-43 13,-63 23,-14 27,-21 20,-35 -7,-11 -5,-26 5,-46 8,-15 13,-31 10,-34 -3,-3 2,-22 10,-42 9,-20 13,-41 11,-46 -3,-4 -8,-47 -11,-94 -4,-80 -3,-89 23,-135 15,-28 34,-50 41,-50 8,0 10,-8 6,-25 -7,-27 15,-86 31,-83 5,1 23,-4 40,-11 25,-11 40,-8 120,20 122,43 199,51 824,79 194,8 246,8 252,-2 4,-7 11,-9 15,-6 3,4 19,1 35,-7 19,-10 61,-15 131,-15 57,-1 123,-6 148,-11 25,-6 77,-14 115,-19 39,-4 86,-12 105,-18 35,-11 499,-19 765,-13 175,3 449,-15 503,-34 37,-13 66,-14 203,-4 135,9 175,8 247,-4 154,-27 747,-48 1015,-36 82,4 90,2 107,-19 23,-27 72,-39 87,-20 14,17 33,99 33,140 0,18 8,47 18,65 59,108 77,133 108,148 42,20 53,56 31,95 -9,15 -14,30 -10,34 3,3 -2,15 -12,26 -16,17 -18,35 -16,106 1,47 6,95 10,107 5,13 7,36 5,52 -2,17 -3,53 -2,80 5,177 4,188 -38,261 -50,89 -62,120 -63,166 -1,21 -7,41 -15,45 -16,9 -29,153 -13,153 6,0 6,5 -1,13 -10,12 0,115 13,137 4,6 9,48 12,93 2,45 7,116 10,157 9,133 10,180 4,180 -3,0 -6,26 -7,58 -1,51 -8,97 -18,127 -11,32 13,167 40,221 23,48 29,74 31,139 2,44 9,145 16,225 13,147 8,252 -14,287 -9,15 -7,27 9,59 17,33 18,46 10,89 -5,28 -11,82 -12,120 -2,39 -6,104 -10,146 -6,69 -4,77 15,95 12,10 27,30 34,44 17,34 11,131 -9,146 -9,6 -16,16 -16,22 0,20 -71,34 -235,46 -16,1 -48,7 -70,13 -57,17 -145,26 -257,26 -71,0 -95,3 -92,12 5,13 -55,29 -179,46 -77,10 -151,5 -173,-12 -7,-6 -15,-4 -22,3 -7,9 -49,14 -129,16 -65,2 -145,8 -178,14 -65,12 -111,12 -190,2 -40,-5 -54,-3 -64,10 -8,10 -30,16 -55,17 -22,1 -52,4 -66,8 -14,4 -45,2 -70,-4 -35,-9 -53,-9 -80,1 -48,17 -90,17 -110,-1 -15,-13 -19,-13 -38,5 -24,22 -48,26 -54,8 -3,-8 -11,-9 -24,-3 -20,9 -99,17 -105,10 z"
       id="path3"
       style="stroke:#d4d4d4;stroke-width:100;stroke-dasharray:none;stroke-opacity:1" />
  </g>
</svg>
