<?xml version="1.0" encoding="UTF-8" standalone="no"?>
<svg
   version="1.0"
   width="637.63586pt"
   height="444.26065pt"
   viewBox="0 0 637.63586 444.26065"
   preserveAspectRatio="none"
   id="svg5"
   xmlns="http://www.w3.org/2000/svg"
   xmlns:svg="http://www.w3.org/2000/svg">
  <defs
     id="defs5" />
  <metadata
     id="metadata1">
Created by potrace 1.15, written by Peter Selinger 2001-2017
</metadata>
  <g
     transform="matrix(0.1,0,0,-0.1,-35.474998,900.35314)"
     fill="#000000"
     stroke="none"
     id="g5">
    <path
       d="m 6420,9000 c -8,-6 -25,-10 -36,-10 -36,0 -128,-42 -151,-68 -19,-23 -30,-26 -95,-27 -67,-2 -157,-24 -182,-47 -14,-12 -79,-10 -71,2 4,7 -2,7 -17,1 -23,-10 -89,-20 -163,-27 -22,-1 -66,-5 -99,-8 -50,-4 -66,-1 -107,21 l -48,26 -25,-24 c -15,-14 -26,-35 -26,-51 0,-50 -17,-76 -55,-87 -20,-5 -43,-18 -53,-29 -13,-14 -41,-22 -112,-31 -53,-7 -102,-18 -111,-26 -8,-8 -19,-15 -23,-15 -4,0 -26,-9 -49,-19 -24,-11 -56,-23 -72,-27 -17,-4 -38,-14 -48,-23 -17,-15 -20,-14 -34,4 -8,11 -17,15 -19,10 -2,-6 -29,-10 -60,-8 -44,1 -62,7 -83,26 -18,17 -43,27 -81,31 -30,4 -57,6 -60,5 -3,-1 -15,3 -27,9 -13,7 -24,8 -28,3 -14,-24 -131,4 -199,47 -28,18 -63,32 -80,32 -16,0 -45,5 -63,12 -29,10 -36,10 -44,-2 -8,-13 -10,-13 -18,-1 -8,12 -12,12 -26,-2 -9,-10 -32,-17 -50,-17 -27,0 -34,4 -37,23 -2,13 -15,28 -35,37 -19,9 -33,23 -33,33 0,18 -1,18 -27,-1 -16,-10 -44,-26 -63,-36 -19,-9 -42,-20 -50,-25 -20,-11 -115,-41 -130,-41 -6,0 -18,-6 -25,-14 -20,-19 -78,-12 -139,18 -29,14 -56,26 -59,26 -4,0 -34,21 -67,46 -62,49 -84,52 -99,12 -13,-34 -147,-110 -321,-183 -36,-15 -84,-38 -107,-51 l -42,-24 -60,20 c -33,11 -71,20 -85,20 -14,0 -27,4 -30,9 -3,5 -15,7 -26,4 -11,-3 -31,2 -45,11 -22,15 -102,30 -218,42 -44,4 -50,2 -80,-29 -26,-28 -40,-35 -75,-36 -24,0 -57,6 -73,15 -39,19 -125,34 -243,39 -141,7 -159,14 -231,90 -48,50 -69,66 -87,64 -24,-3 -80,22 -110,49 -15,12 -27,13 -77,3 -41,-8 -72,-9 -103,-2 -27,6 -57,7 -76,2 -17,-5 -33,-7 -36,-3 -3,3 -6,1 -6,-5 0,-11 -160,-10 -178,1 -6,4 -35,9 -64,12 -29,2 -62,5 -74,7 -14,1 -38,-18 -77,-63 -77,-87 -107,-152 -107,-228 0,-34 -10,-90 -22,-128 -12,-38 -22,-97 -23,-131 0,-34 -4,-65 -7,-69 -4,-3 -4,-12 -1,-20 3,-8 -2,-22 -10,-32 -35,-39 -66,-119 -72,-187 -11,-135 -14,-150 -29,-187 -9,-22 -16,-66 -16,-107 0,-38 -6,-80 -13,-94 -17,-32 -23,-311 -7,-351 5,-15 7,-32 4,-38 -4,-6 -8,-36 -10,-67 -7,-126 -13,-180 -22,-198 -5,-10 -10,-49 -11,-87 -1,-38 -6,-76 -10,-85 -5,-9 -7,-51 -6,-93 2,-59 7,-83 23,-103 27,-33 34,-95 37,-300 2,-183 9,-213 56,-279 16,-22 29,-45 29,-51 0,-5 9,-27 20,-49 16,-29 19,-48 15,-81 -4,-23 -1,-76 6,-116 13,-72 18,-168 18,-314 0,-38 0,-98 0,-132 -1,-59 20,-113 42,-113 8,0 58,-89 60,-107 2,-11 9,-32 23,-72 17,-45 75,-67 118,-45 16,8 57,19 91,23 34,5 91,16 127,24 89,22 256,38 435,40 167,2 178,1 255,-38 49,-25 68,-28 170,-31 77,-1 132,3 168,12 55,15 121,9 220,-23 23,-7 65,-13 92,-13 28,0 58,-4 68,-9 124,-60 212,-93 238,-88 13,2 29,-2 35,-9 6,-8 18,-14 25,-14 8,0 22,-4 32,-9 9,-5 42,-21 72,-37 73,-36 137,-73 188,-106 46,-31 101,-45 181,-47 49,-1 71,7 225,82 161,79 176,84 251,90 61,4 95,12 145,36 36,17 76,31 90,31 14,0 54,14 88,31 57,27 69,30 115,23 29,-5 88,-9 132,-9 92,-2 196,-17 240,-36 25,-10 129,-17 335,-20 90,-2 419,20 450,30 19,6 50,11 69,11 18,0 49,9 67,21 40,24 94,41 94,29 0,-5 17,-14 38,-21 20,-6 42,-14 47,-18 6,-3 18,-7 29,-8 10,-2 33,-9 50,-17 17,-7 47,-19 66,-26 19,-6 46,-18 60,-25 14,-7 76,-27 138,-44 103,-29 118,-30 190,-22 66,8 97,19 219,80 149,75 183,105 183,166 0,15 8,39 19,53 18,26 38,171 32,229 -1,12 3,41 10,65 6,24 11,60 10,81 0,21 3,47 9,56 5,10 23,69 39,132 16,63 37,131 45,151 11,26 16,75 17,165 1,70 6,136 11,145 8,16 15,157 19,393 1,48 -5,102 -14,135 -12,38 -17,104 -19,218 -1,90 -5,165 -8,167 -3,2 -4,108 -3,237 4,341 2,446 -9,464 -4,6 -10,46 -14,90 -3,43 -13,94 -20,112 -15,38 -26,133 -25,211 2,66 -16,201 -34,256 -9,29 -11,83 -8,195 4,130 2,173 -15,260 -30,151 -33,178 -22,185 12,7 14,26 3,23 -5,-1 -22,5 -39,15 -17,9 -34,13 -37,10 -4,-3 -12,-1 -20,5 -8,7 -18,7 -27,2 z"
       id="path1" />
  </g>
</svg>
