<?xml version="1.0" encoding="UTF-8" standalone="no"?>
<svg
   version="1.0"
   width="627.5246pt"
   height="118.65884pt"
   viewBox="0 0 627.5246 118.65884"
   preserveAspectRatio="none"
   id="svg5"
   xmlns="http://www.w3.org/2000/svg"
   xmlns:svg="http://www.w3.org/2000/svg">
  <defs
     id="defs5" />
  <metadata
     id="metadata1">
Created by potrace 1.15, written by Peter Selinger 2001-2017
</metadata>
  <g
     transform="matrix(0.1,0,0,-0.1,-49.095675,417.65883)"
     fill="#000000"
     stroke="none"
     id="g5">
    <path
       d="m 1386,4173 c -3,-4 -6,-14 -6,-23 0,-20 -46,-55 -97,-74 -21,-8 -52,-20 -70,-27 -25,-10 -37,-10 -55,-1 -37,20 -152,18 -166,-4 -10,-15 -76,-44 -100,-44 -11,0 -22,-6 -25,-14 -5,-11 -98,-37 -152,-42 -179,-15 -180,-15 -200,-58 -19,-39 -24,-92 -23,-236 1,-156 0,-200 -1,-303 -1,-101 15,-136 83,-182 48,-33 60,-32 106,8 82,70 253,112 390,95 47,-5 99,-16 115,-23 58,-25 151,-38 265,-37 76,1 138,-5 183,-16 59,-14 75,-14 125,-2 103,24 167,24 216,0 39,-18 50,-20 86,-10 44,12 118,12 135,-1 6,-4 25,-10 43,-14 26,-5 38,-2 62,18 16,14 46,31 66,37 43,15 137,5 155,-16 6,-8 17,-14 23,-14 7,0 38,-14 70,-31 56,-30 60,-31 114,-20 38,8 134,10 292,7 323,-7 472,-18 478,-34 4,-14 66,-42 93,-42 11,0 37,16 58,35 22,20 53,40 70,45 29,8 37,4 102,-52 38,-33 73,-58 76,-54 4,3 13,0 22,-7 22,-19 102,-47 132,-47 27,0 46,17 69,63 24,49 64,74 146,92 63,14 85,15 117,5 21,-6 71,-14 110,-17 49,-4 93,-16 137,-36 64,-29 66,-29 195,-23 72,3 156,11 188,16 43,8 73,8 115,-1 74,-15 276,-13 374,5 43,7 106,28 142,45 36,17 71,31 79,31 7,0 37,18 66,40 62,45 108,55 215,47 39,-4 90,-3 114,2 23,5 42,4 42,0 0,-5 6,-9 13,-9 14,0 155,-57 171,-69 41,-30 117,-46 226,-46 63,0 120,3 126,7 5,4 9,22 8,40 -2,18 13,86 32,151 19,66 32,122 30,126 -2,3 -10,69 -16,146 -9,103 -16,146 -29,165 -35,49 -65,143 -64,198 1,28 -2,52 -6,52 -3,0 -5,18 -3,40 3,33 1,40 -13,40 -32,0 -97,-24 -102,-37 -3,-7 -15,-13 -28,-13 -12,0 -30,-9 -41,-21 -15,-17 -26,-20 -56,-15 -23,4 -51,1 -71,-7 -37,-16 -134,-8 -146,11 -4,7 -20,14 -37,18 -25,5 -32,2 -42,-20 -7,-17 -24,-28 -51,-36 -22,-6 -43,-15 -46,-19 -7,-13 -229,-5 -254,8 -11,6 -33,11 -50,11 -16,0 -31,5 -33,12 -3,7 -29,13 -68,15 -35,1 -66,7 -70,13 -4,7 -47,8 -131,4 -68,-4 -133,-7 -144,-6 -60,2 -151,15 -160,22 -15,12 -76,5 -85,-10 -9,-15 -98,-31 -106,-18 -3,4 -10,6 -15,3 -5,-4 -41,-8 -79,-10 -52,-2 -70,0 -70,10 0,22 -90,39 -117,22 -6,-4 -22,-3 -35,2 -12,4 -50,7 -83,6 -45,-2 -73,3 -110,20 -55,25 -172,32 -212,13 -16,-8 -26,-8 -35,0 -17,13 -145,14 -154,1 -8,-14 -49,-29 -98,-34 -22,-3 -51,-10 -63,-17 -26,-13 -89,3 -135,34 -19,13 -33,16 -50,10 -12,-5 -42,-12 -65,-16 -42,-6 -43,-6 -43,23 v 28 l -77,-19 c -43,-11 -98,-22 -123,-25 -26,-3 -53,-13 -63,-24 -15,-16 -28,-19 -68,-15 -28,2 -56,9 -63,15 -7,6 -34,12 -61,15 -30,2 -51,9 -57,20 -5,9 -15,16 -23,16 -7,0 -22,11 -33,25 -11,13 -39,31 -63,39 -49,17 -59,11 -59,-37 0,-17 -7,-30 -17,-34 -10,-4 -20,-10 -23,-14 -10,-14 -125,-57 -128,-48 -2,5 -11,9 -21,9 -9,0 -22,5 -29,12 -9,9 -12,9 -12,0 0,-14 -33,-16 -58,-3 -108,58 -174,68 -222,33 -28,-21 -39,-23 -143,-20 -61,2 -141,-2 -176,-8 -42,-8 -73,-9 -89,-3 -14,5 -34,6 -46,3 -61,-20 -293,-25 -308,-6 -6,6 -19,12 -29,12 -34,0 -86,35 -115,77 -29,43 -47,57 -58,46 z"
       id="path4" />
  </g>
</svg>
