<?xml version="1.0" encoding="UTF-8" standalone="no"?>
<svg
   version="1.0"
   width="492.81763pt"
   height="332.28104pt"
   viewBox="0 0 492.81763 332.28104"
   preserveAspectRatio="none"
   id="svg5"
   xmlns="http://www.w3.org/2000/svg"
   xmlns:svg="http://www.w3.org/2000/svg">
  <defs
     id="defs5" />
  <metadata
     id="metadata1">
Created by potrace 1.15, written by Peter Selinger 2001-2017
</metadata>
  <g
     transform="matrix(0.1,0,0,-0.1,-719.89842,857.84562)"
     fill="#000000"
     stroke="none"
     id="g5">
    <path
       d="m 7949,8570 c -8,-5 -51,-14 -95,-19 -104,-14 -112,-16 -120,-24 -4,-4 -25,-7 -46,-7 -25,0 -45,-7 -58,-20 -11,-11 -20,-18 -20,-15 0,2 -12,0 -26,-5 -15,-6 -31,-7 -38,-2 -18,14 -166,15 -166,2 0,-7 -12,-9 -32,-6 -18,3 -37,1 -43,-3 -5,-5 -30,-11 -55,-14 -25,-3 -46,-6 -47,-6 -11,-3 2,-32 22,-51 14,-13 25,-33 25,-44 0,-12 9,-36 20,-54 19,-32 23,-73 7,-88 -13,-14 -7,-75 12,-122 11,-26 22,-60 26,-77 4,-16 14,-38 22,-48 9,-9 14,-20 10,-23 -8,-9 25,-98 41,-110 9,-6 13,-18 9,-26 -3,-9 -1,-33 3,-54 7,-28 6,-42 -3,-49 -7,-5 -13,-30 -14,-55 -1,-44 -6,-97 -17,-190 -3,-26 2,-72 11,-109 14,-55 14,-66 2,-75 -30,-23 -40,-44 -31,-63 5,-10 16,-32 25,-50 9,-18 11,-33 6,-35 -6,-2 -4,-15 5,-32 8,-16 12,-34 9,-41 -2,-8 5,-18 16,-24 11,-6 18,-17 15,-25 -3,-8 3,-20 13,-27 29,-21 36,-38 22,-55 -6,-8 -9,-17 -6,-21 4,-3 2,-12 -3,-18 -15,-18 -21,-176 -8,-193 12,-14 17,-45 22,-125 1,-26 8,-53 14,-59 7,-7 12,-20 12,-30 0,-15 11,-45 43,-115 5,-11 6,-26 3,-32 -4,-6 -4,-17 1,-23 12,-20 13,-79 1,-126 -8,-30 -8,-50 0,-66 8,-18 7,-27 -4,-38 -12,-11 -12,-21 -4,-42 15,-40 13,-46 -20,-57 -35,-13 -34,-9 -16,-45 8,-15 13,-31 11,-35 -3,-4 2,-12 10,-19 8,-7 15,-20 15,-29 0,-19 13,-50 53,-129 15,-30 27,-64 27,-76 0,-13 6,-36 14,-52 9,-16 13,-48 12,-73 -2,-24 0,-56 4,-72 7,-23 4,-30 -15,-43 -57,-37 -32,-74 81,-118 55,-21 72,-23 239,-21 99,1 214,7 255,12 177,24 664,43 1020,41 446,-3 440,-4 507,19 72,24 129,27 140,7 11,-19 131,-79 143,-71 5,3 10,2 10,-3 0,-28 120,-19 265,19 44,12 365,13 585,2 80,-4 174,-6 210,-6 171,3 219,3 410,-1 113,-2 253,1 311,7 92,9 112,8 162,-8 54,-17 58,-17 76,-1 24,22 43,100 35,146 -3,19 -7,94 -8,165 -1,124 -2,132 -28,170 -29,42 -35,83 -17,116 6,11 11,53 11,93 0,68 3,77 34,116 19,24 34,50 35,59 0,9 3,25 5,36 10,45 14,138 6,149 -15,19 -20,65 -11,105 25,111 33,232 20,289 -15,61 -20,89 -27,172 -4,36 -10,70 -13,75 -4,6 -8,38 -10,72 -2,50 3,75 25,123 14,33 24,69 21,80 -3,11 -2,22 2,24 10,6 2,264 -9,301 -5,17 -12,58 -15,92 -5,47 -13,69 -33,90 -22,24 -25,36 -24,93 1,36 -3,72 -8,80 -6,10 -2,22 14,40 30,32 55,115 50,160 -3,19 -6,53 -8,75 -2,21 -8,41 -15,43 -6,2 -11,10 -11,18 0,8 -7,17 -15,21 -9,3 -22,18 -30,33 -23,45 -44,61 -71,54 -14,-4 -34,0 -47,8 -12,8 -43,20 -69,26 -25,7 -59,17 -75,23 -46,19 -57,20 -313,23 -135,1 -265,7 -290,13 -59,15 -363,14 -372,0 -4,-7 -11,-7 -20,-1 -19,15 -58,15 -58,1 0,-9 -20,-13 -59,-14 -49,-2 -66,3 -97,23 -38,26 -104,40 -104,22 0,-6 -6,-8 -13,-5 -8,3 -35,1 -62,-4 -27,-5 -51,-6 -54,-1 -3,4 -28,7 -56,6 -27,-1 -63,5 -78,13 -26,13 -38,12 -120,-8 -72,-17 -128,-23 -257,-25 -91,-2 -239,-6 -330,-9 -91,-3 -241,-7 -335,-9 -93,-2 -204,-4 -245,-6 -41,-1 -91,1 -110,4 -85,13 -384,7 -409,-9 -12,-7 -148,44 -194,72 -27,17 -58,25 -110,28 -48,4 -76,10 -83,20 -13,17 -14,17 -35,5 z"
       id="path2" />
  </g>
</svg>
