<?xml version="1.0" encoding="UTF-8" standalone="no"?>
<svg
   version="1.0"
   width="558.70343pt"
   height="210.188pt"
   viewBox="0 0 558.70343 210.188"
   preserveAspectRatio="none"
   id="svg5"
   xmlns="http://www.w3.org/2000/svg"
   xmlns:svg="http://www.w3.org/2000/svg">
  <defs
     id="defs5" />
  <metadata
     id="metadata1">
Created by potrace 1.15, written by Peter Selinger 2001-2017
</metadata>
  <g
     transform="matrix(0.1,0,0,-0.1,-93.712003,258.47849)"
     fill="#000000"
     stroke="none"
     id="g5">
    <path
       d="m 2670,2580 c -41,-4 -88,-12 -105,-18 -16,-6 -49,-13 -72,-15 -23,-2 -49,-9 -57,-16 -19,-16 -134,-42 -141,-31 -2,4 -30,3 -62,-1 -82,-11 -418,-15 -478,-6 -27,5 -104,8 -170,8 -66,0 -136,4 -157,9 -124,34 -286,39 -342,11 -23,-11 -57,-22 -77,-26 -30,-4 -38,-11 -42,-33 -3,-17 2,-36 14,-53 11,-16 22,-53 25,-88 4,-35 12,-62 20,-65 8,-3 13,-28 14,-73 4,-189 8,-240 19,-262 8,-15 11,-39 6,-68 -4,-30 -2,-49 6,-60 15,-17 14,-70 -1,-88 -5,-7 -7,-15 -4,-18 13,-13 -6,-54 -32,-67 -37,-21 -66,-86 -58,-133 4,-29 2,-43 -12,-58 -10,-11 -12,-19 -6,-19 18,0 14,-65 -3,-80 -9,-7 -12,-17 -8,-21 4,-4 5,-43 1,-86 -4,-43 -8,-98 -10,-123 -3,-25 2,-60 10,-80 9,-19 14,-39 13,-44 -1,-5 1,-16 5,-25 11,-26 15,-43 20,-90 3,-25 9,-50 15,-57 7,-8 5,-23 -5,-47 -17,-41 -7,-57 35,-57 15,0 29,-5 31,-10 2,-7 37,-8 108,-2 103,8 203,2 270,-17 19,-5 67,-19 105,-31 39,-11 88,-23 110,-25 21,-3 48,-11 60,-19 32,-20 64,-28 150,-36 173,-16 282,-31 325,-45 25,-8 77,-16 115,-17 59,-1 77,3 115,25 25,14 70,30 100,35 83,15 529,2 615,-18 28,-6 112,-11 190,-9 77,1 258,1 401,1 243,-2 265,-3 310,-23 44,-19 71,-22 274,-25 171,-3 243,0 300,11 66,13 181,18 400,16 36,-1 109,8 162,19 53,11 130,20 171,20 94,0 228,25 281,52 40,21 46,21 201,10 211,-16 356,0 477,53 106,46 141,74 156,124 17,56 16,186 -2,245 -12,38 -13,66 -6,120 8,66 6,129 -6,183 -2,12 -15,33 -28,45 -13,13 -26,34 -29,48 -7,29 24,118 79,227 31,60 36,78 32,117 -4,29 -1,52 8,64 12,18 25,212 14,212 -3,0 -6,8 -7,18 -2,20 -12,76 -19,110 -3,16 -11,22 -32,22 -47,0 -72,11 -72,32 0,10 -11,35 -25,55 -18,28 -22,41 -14,55 5,10 15,18 22,18 22,0 -16,19 -73,36 -69,21 -190,25 -190,6 0,-8 -5,-10 -12,-5 -13,8 -138,13 -403,17 -140,2 -223,14 -265,36 -10,5 -37,11 -61,14 -24,2 -71,14 -103,25 -33,12 -68,19 -78,15 -10,-3 -18,-1 -18,4 0,13 -71,13 -87,1 -7,-7 -14,-6 -18,0 -4,7 -15,5 -33,-7 -41,-27 -224,-42 -282,-24 -25,8 -49,18 -55,22 -5,4 -45,10 -87,14 -43,4 -95,13 -115,20 -21,7 -56,11 -79,8 -28,-2 -46,1 -56,12 -13,12 -27,13 -79,6 -35,-5 -152,-12 -259,-15 -107,-4 -219,-8 -249,-10 -29,-2 -65,1 -80,5 -48,16 -134,21 -431,25 -262,3 -353,7 -480,19 -19,2 -69,0 -110,-4 z"
       id="path5" />
  </g>
</svg>
