<?xml version="1.0" encoding="UTF-8"?>
<svg id="Layer_2" data-name="Layer 2" xmlns="http://www.w3.org/2000/svg" viewBox="0 0 466.91 664.02">
  <defs>
    <style>
      .cls-1 {
        stroke-width: 0px;
      }
    </style>
  </defs>
  <g id="Layer_1-2" data-name="Layer 1">
    <path class="cls-1" d="M450.13,657.66l-63.39,5.23c-16.84,1.39-33.76,1.49-50.61.32l-89.25-6.23-111.66-9.93c-.51-.05-1.03-.05-1.54,0l-111.43,9.13c-5.28.43-9.8-3.73-9.8-9.03v-149.41c0-.45-.03-.89-.1-1.34L.5,417.01c-.7-4.66-.67-9.4.09-14.06l11.74-72.39c.08-.48.12-.97.12-1.45v-66.71c0-.22,0-.43.02-.65l7.93-110.2c.03-.39.03-.77,0-1.16L13.02,18.24c-.3-5.45,4.24-9.93,9.68-9.54l103.1,7.23c.43.03.87.03,1.3,0l108.35-7.95L358.79.02c.44-.03.88-.02,1.31.01l90.01,7.27c4.71.38,8.33,4.31,8.33,9.03v127.16c0,.32.02.64.05.97l4.25,39.66c1.13,10.56,1.47,21.18,1,31.79l-5.24,119.29c-.04.83.04,1.65.23,2.46l6.08,26.03c1.75,7.48,2.41,15.18,1.96,22.84l-8.31,141.56c-.01.18-.02.35-.02.53v120c0,4.72-3.62,8.64-8.32,9.03Z"/>
  </g>
</svg>