<?xml version="1.0" encoding="UTF-8" standalone="no"?>
<!-- Created with Inkscape (http://www.inkscape.org/) -->

<svg
   width="627.40924mm"
   height="128.95091mm"
   viewBox="0 0 627.40924 128.95091"
   version="1.1"
   id="svg1"
   xml:space="preserve"
   xmlns="http://www.w3.org/2000/svg"
   xmlns:svg="http://www.w3.org/2000/svg"><defs
     id="defs1" /><path
     id="path1-2"
     style="fill:#993955"
     d="m 192.5166,0 v 16.139583 h -8.46666 v 7.408334 h -2.91042 v 83.079163 h -11.1125 V 87.841667 H 163.9416 V 56.35625 h -37.30625 v -25.4 h -8.20208 v 25.4 h -5.02708 V 72.760417 H 96.208269 V 48.683333 L 91.316061,48.25907 89.057801,41.804167 84.037436,25.4 81.014881,34.660417 76.893686,48.683333 h -5.291667 v 45.508334 c -6.411314,-6.358224 -21.290044,-8.494873 -25.4,2.116666 h -0.264583 v -37.30625 h -24.60625 v 10.31875 H 21.066602 L 18.268324,59.53125 11.806186,38.1 h -0.264584 l -6.6213008,21.960417 -3.6974488,12.7 H 0.16451912 L 1.293339e-8,128.81139 H 339.06664 v 0.13953 h 142.875 l 145.4676,-0.8642 -2.42808,-8.09094 h -2.62206 -2.62206 l -2.47117,-2.46084 c -1.386,-1.38016 -3.35513,-3.00827 -4.48396,-3.70778 -8.55567,-5.30182 -20.45,-6.52258 -30.57126,-3.13728 l -2.20865,0.73898 V 84.2269 57.024943 h -1.32292 -1.32292 V 53.453068 38.139791 l -15.61041,11.741402 v 3.571875 3.571875 h -1.1896 -1.18959 l -0.0672,30.524752 -0.0672,30.525265 c 0,0 -6.47163,-11.17867 -9.75031,-16.76693 -3.27867,-5.588266 -9.82747,-16.764286 -9.92187,-16.762286 -0.0944,0.0022 -4.10063,6.767085 -8.90282,15.033191 l -8.73125,15.029055 -0.0677,-26.807148 -0.0672,-26.807149 h -10.31772 -10.3172 v 17.065625 17.065625 h -6.21771 -6.2177 v 12.435417 12.43542 h -3.43959 -3.43958 v -7.80521 -7.80521 h -2.51354 -2.51354 V 91.156193 77.927026 h -15.61042 -15.61042 l -0.60203,-7.883756 -6.54172,-13.547494 v 10.715625 10.715625 h -1.98437 -1.98438 v 6.746875 6.746875 h -7.27604 -7.27604 V 81.36661 71.312443 h -10.31875 -10.31875 v 19.218465 19.218462 l -1.28933,-1.20612 c -0.7092,-0.66337 -1.99858,-1.56409 -2.86494,-2.00143 l -1.5751,-0.7953 -1.39009,-4.58319 c -2.60381,-8.587091 -3.01998,-9.8749 -3.10679,-9.610262 -0.0477,0.14552 -1.03999,3.409347 -2.20503,7.252787 -1.16504,3.843435 -2.14881,7.000825 -2.18592,7.016625 -2.59279,1.10092 -4.33908,2.35838 -5.74435,4.13618 l -1.0697,1.35341 V 95.677881 80.043693 l -20.33623,-11.139372 -0.30127,16.827914 v 5.688541 h -8.99583 -8.99584 V 106.62708 H 315.28327 V 72.760417 h -24.60625 v 5.291666 c -4.65517,-1.076959 -8.89381,-2.645833 -13.75833,-2.645833 v -6.614583 h -2.38125 v 6.35 c -7.81647,0.0215 -15.09325,2.207577 -21.96042,5.820833 V 52.122917 H 227.70619 V 106.62708 H 205.74577 V 23.547917 h -2.91042 v -7.408334 h -8.46666 V 0 Z" /></svg>
