<?xml version="1.0" encoding="UTF-8" standalone="no"?>
<!-- Created with Inkscape (http://www.inkscape.org/) -->

<svg
   width="910.04236mm"
   height="154.92078mm"
   viewBox="0 0 910.04235 154.92078"
   version="1.1"
   id="svg1"
   xml:space="preserve"
   xmlns="http://www.w3.org/2000/svg"
   xmlns:svg="http://www.w3.org/2000/svg"><defs
     id="defs1" /><g
     id="g1"><g
       id="layer1"
       transform="translate(396.33388,-44.575611)"
       style="fill:#6d72c3" /><path
       id="path1-2-7"
       style="fill:#6d72c3"
       d="m 476.84996,0 v 16.139583 h -8.46666 v 7.408334 h -2.91042 v 83.079163 h -11.1125 V 87.841667 h -6.08542 V 56.35625 h -37.30625 v -25.4 h -8.20208 v 25.4 h -5.02708 V 72.760417 H 380.54163 V 48.683333 L 375.64994,48.25907 373.39168,41.804167 368.3708,25.4 l -3.02256,9.260417 -4.12119,14.022916 h -5.29167 v 45.508334 c -6.41131,-6.358224 -21.29004,-8.494873 -25.4,2.116666 h -0.26458 v -37.30625 h -24.60625 v 10.31875 h -0.26459 L 302.6022,59.53125 296.13955,38.1 h -0.26459 l -6.6213,21.960417 -3.69745,12.7 h -1.05833 v 47.232263 h -1.36994 -2.62206 l -2.47117,-2.46084 c -1.386,-1.38016 -3.35514,-3.00827 -4.48397,-3.70778 -8.55567,-5.30182 -20.45,-6.52258 -30.57126,-3.13728 l -2.20865,0.73898 V 84.2238 57.021842 h -1.32291 -1.32292 v -3.571875 -15.31276 l -15.61042,11.740885 v 3.571875 3.571875 h -1.18959 -1.18959 l -0.0672,30.524752 -0.0672,30.525266 c 0,0 -6.47163,-11.17867 -9.75031,-16.76693 -3.27867,-5.588265 -9.82747,-16.764287 -9.92187,-16.762287 -0.0944,0.0022 -4.10063,6.767085 -8.90282,15.033191 l -8.73125,15.029056 -0.0677,-26.807148 -0.0672,-26.80715 H 172.2422 161.925 v 17.065625 17.065625 h -6.21771 -6.21771 v 12.435418 12.43542 H 146.05 142.61042 v -7.80521 -7.80521 h -2.51355 -2.51354 V 91.153092 77.923926 H 121.97292 106.3625 L 105.76047,70.040169 99.21875,56.492676 V 67.208301 77.923926 H 97.234375 95.25 v 6.746875 6.746875 H 87.973958 80.697917 V 81.363509 71.309342 h -10.31875 -10.31875 v 19.218466 19.218462 l -1.289327,-1.20613 c -0.7092,-0.66336 -1.998583,-1.56408 -2.864942,-2.00142 l -1.575097,-0.7953 -1.390096,-4.58319 c -2.603808,-8.58709 -3.019978,-9.8749 -3.106788,-9.610263 -0.0477,0.14552 -1.039994,3.409348 -2.205033,7.252788 -1.165039,3.843435 -2.148803,7.000825 -2.185913,7.016625 -2.592797,1.10092 -4.339084,2.35838 -5.744352,4.13618 l -1.069702,1.35341 V 95.67478 80.040592 L 18.29294,68.901737 17.991667,85.729134 v 5.688542 H 8.9958333 0 V 140.63018 L 1.2569648,128.2514 h 142.8749952 142.875 v -0.13643 h 337.28536 v 0.13953 h 142.875 142.875 l -1.25696,26.66628 v -34.925 h -2.62207 -2.62206 l -2.47117,-2.46084 c -1.38599,-1.38016 -3.35513,-3.00827 -4.48396,-3.70778 -8.55567,-5.30182 -20.45,-6.52258 -30.57126,-3.13728 l -2.20865,0.73898 V 84.2269 57.024943 h -1.32292 -1.32291 V 53.453068 38.139791 l -15.61042,11.741402 v 3.571875 3.571875 h -1.18959 -1.18959 l -0.0672,30.524752 -0.0672,30.525265 c 0,0 -6.47164,-11.17867 -9.75031,-16.76693 -3.27868,-5.588266 -9.82748,-16.764286 -9.92188,-16.762286 -0.0944,0.0022 -4.10063,6.767085 -8.90281,15.033191 l -8.73125,15.029055 -0.0677,-26.807148 -0.0672,-26.807149 H 795.2775 784.9603 v 17.065625 17.065625 h -6.21771 -6.21771 v 12.435417 12.43542 h -3.43958 -3.43959 v -7.80521 -7.80521 h -2.51354 -2.51354 V 91.156193 77.927026 H 745.00821 729.3978 l -0.60203,-7.883756 -6.54172,-13.547494 v 10.715625 10.715625 h -1.98438 -1.98437 v 6.746875 6.746875 h -7.27605 -7.27604 V 81.36661 71.312443 h -10.31875 -10.31875 v 19.218465 19.218462 l -1.28932,-1.20612 c -0.7092,-0.66337 -1.99859,-1.56409 -2.86495,-2.00143 l -1.57509,-0.7953 -1.3901,-4.58319 c -2.60381,-8.587091 -3.01998,-9.8749 -3.10679,-9.610262 -0.0477,0.14552 -1.03999,3.409347 -2.20503,7.252787 -1.16504,3.843435 -2.1488,7.000825 -2.18591,7.016625 -2.5928,1.10092 -4.33909,2.35838 -5.74436,4.13618 l -1.0697,1.35341 V 95.677881 80.043693 L 641.3283,68.904321 641.02702,85.732235 v 5.688541 h -8.99583 -8.99583 V 106.62708 H 599.61663 V 72.760417 h -24.60625 v 5.291666 c -4.65517,-1.076959 -8.89381,-2.645833 -13.75833,-2.645833 v -6.614583 h -2.38125 v 6.35 c -7.81647,0.0215 -15.09325,2.207577 -21.96042,5.820833 V 52.122917 H 512.03955 V 106.62708 H 490.07913 V 23.547917 h -2.91042 v -7.408334 h -8.46666 V 0 Z" /></g></svg>
