<?xml version="1.0" encoding="UTF-8" standalone="no"?>
<!-- Created with Inkscape (http://www.inkscape.org/) -->

<svg
   width="340.25415mm"
   height="115.5768mm"
   viewBox="0 0 340.25415 115.5768"
   version="1.1"
   id="svg1"
   xml:space="preserve"
   xmlns="http://www.w3.org/2000/svg"
   xmlns:svg="http://www.w3.org/2000/svg"><defs
     id="defs1" /><g
     id="layer1"
     transform="translate(111.83579,-44.57561)"
     style="fill:#000000"><path
       style="fill:red;stroke:none"
       d="m 80.516294,44.57561 v 16.139583 h -8.46667 v 7.408333 h -2.91042 v 83.079164 h -11.1125 V 132.41727 H 51.94129 V 100.93186 H 14.635041 V 75.531859 H 6.4329576 v 25.400001 h -5.027081 v 16.40416 H -15.792043 V 93.258943 l -4.89214,-0.42423 -2.25814,-6.454937 -5.02055,-16.404167 -3.0227,9.260417 -4.12105,14.022917 h -5.29167 v 45.508327 c -6.41132,-6.35823 -21.29004,-8.49488 -25.4,2.11667 h -0.26458 v -37.30625 h -24.60625 v 10.31875 h -0.26458 l -2.79814,-9.78958 -6.462277,-21.431251 h -0.26458 l -6.62132,21.960411 -3.69743,12.7 h -1.05834 v 42.81639 h 340.25417 v -8.94972 H 203.28296 V 117.33602 H 178.6767 v 5.29167 c -4.65517,-1.07696 -8.8938,-2.64583 -13.75833,-2.64583 v -6.61459 h -2.38125 v 6.35 c -7.81647,0.0215 -15.09324,2.20758 -21.96042,5.82084 V 96.698523 H 115.70587 V 151.20269 H 93.745454 V 68.123526 h -2.91041 v -7.408333 h -8.46667 V 44.57561 Z"
       id="path1" /></g></svg>
