<?xml version="1.0" encoding="UTF-8" standalone="no"?>
<!-- Created with Inkscape (http://www.inkscape.org/) -->

<svg
   preserveAspectRatio="none"
   viewBox="0 0 294.98459 130.64111"
   version="1.1"
   id="svg1"
   inkscape:version="1.3.2 (091e20e, 2023-11-25)"
   sodipodi:docname="cityScape3-3.svg"
   inkscape:export-filename="Documents/projects/portfolio3/portfolio3/src/assets/cityScape3-2.svg"
   inkscape:export-xdpi="96"
   inkscape:export-ydpi="96"
   xmlns:inkscape="http://www.inkscape.org/namespaces/inkscape"
   xmlns:sodipodi="http://sodipodi.sourceforge.net/DTD/sodipodi-0.dtd"
   xmlns="http://www.w3.org/2000/svg"
   xmlns:svg="http://www.w3.org/2000/svg">
  <sodipodi:namedview
     id="namedview1"
     pagecolor="#505050"
     bordercolor="#eeeeee"
     borderopacity="1"
     inkscape:showpageshadow="0"
     inkscape:pageopacity="0"
     inkscape:pagecheckerboard="0"
     inkscape:deskcolor="#505050"
     inkscape:document-units="mm"
     inkscape:zoom="6.3660096"
     inkscape:cx="209.62896"
     inkscape:cy="80.427149"
     inkscape:window-width="2560"
     inkscape:window-height="1387"
     inkscape:window-x="1680"
     inkscape:window-y="40"
     inkscape:window-maximized="1"
     inkscape:current-layer="g61"
     showguides="true" />
  <defs
     id="defs1" />
  <g
     inkscape:groupmode="layer"
     id="layer2"
     inkscape:label="lights"
     style="display:inline"
     transform="translate(-1.0076905,-77.99782)">
    <path
       id="rect1"
       style="display:inline;fill:#784d78;fill-opacity:1;stroke-width:0.137511"
       d="m 168.16183,77.997823 v 4.582666 l -7.96592,15.5236 h -5.09943 v -4.022493 h -1.67949 v 6.374284 h -1.89342 v 78.25518 a 15.118778,15.118778 0 0 0 -11.54348,-6.97529 l -0.91261,-9.88777 -0.91157,9.87692 a 15.118778,15.118778 0 0 0 -11.15798,5.61981 v -33.88424 h -6.38359 v 12.80129 l -21.360967,-5.76037 -0.141593,0.11472 v -0.10025 h -8.734868 v 6.71948 H 86.00922 v 8.73539 H 77.273836 V 139.7646 h -1.451074 v -6.80992 h -2.580721 v -1.58906 h -5.413106 v -1.82004 h -1.978174 v -2.21175 h -1.07797 v -1.90273 h -1.528589 v -1.17564 h -0.954981 v -8.53694 h -1.151867 v 8.53694 h -1.536858 v 1.17564 h -1.058333 v 1.90273 h -1.090889 v 5.71128 59.80307 h -6.047177 v -18.14205 h -9.07128 V 151.18767 H 34.94102 v 35.94923 h -4.367692 v -58.12359 h -2.015381 v -3.02358 h -2.015898 v -2.3518 H 21.83846 v -15.79077 h -1.680001 v 15.79077 h -5.039485 v 2.3518 h -2.015898 v 3.02358 h -1.008207 v 37.96513 H 6.3835897 v 10.07949 H 2.6876912 v 15.79025 H 1.0076904 v 15.79076 H 295.99227 v -15.79076 h -6.04769 v -31.58102 h 2.68769 v -19.15077 h -2.68769 v -22.51025 h -1.46503 v -15.57011 h -0.70538 v 15.57011 h -13.28446 v 2.6882 h -2.0159 v 17.80615 h 2.0159 v 22.84615 h -3.02359 V 186.801 h 3.02359 v 6.04718 h -9.07129 v -16.12667 h -6.38307 V 188.481 h -7.72769 v 2.01538 h -3.02359 v -4.36717 h -3.36 v -4.0318 h -7.39128 v -31.24564 h -3.35949 v -17.47076 h -1.68 v 17.47076 h -5.03948 V 139.7646 h -1.68 v 11.08717 h -3.6959 v 31.24564 h -5.37539 v 4.0318 h -4.36769 v 6.71897 h -4.23023 l -8.53695,-14.78618 -8.53694,14.78618 h -1.87792 v -10.41487 h -4.3677 v -81.97743 h -2.68769 V 93.4005 h -1.68 v 4.703589 h -4.12016 L 168.57369,82.475586 V 77.997823 Z M 77.273836,170.67434 h 8.735384 v 14.11076 h -8.735384 z m 171.010234,21.16615 h 3.02359 v 1.00769 h -3.02359 z"
       inkscape:label="cityscape"
       inkscape:export-filename="Documents/projects/portfolio3/portfolio3/src/assets/cityScapeTopLights.svg"
       inkscape:export-xdpi="96"
       inkscape:export-ydpi="96" />
    <g
       id="g61"
       inkscape:label="topLights" />
  </g>
</svg>
