<?xml version="1.0" encoding="utf-8"?>
<!-- Generator: Adobe Illustrator 28.1.0, SVG Export Plug-In . SVG Version: 6.00 Build 0)  -->
<svg version="1.1"
	 id="svg1" xmlns:svg="http://www.w3.org/2000/svg" xmlns:sodipodi="http://sodipodi.sourceforge.net/DTD/sodipodi-0.dtd" xmlns:inkscape="http://www.inkscape.org/namespaces/inkscape" inkscape:export-filename="cityScape3-2.svg" inkscape:export-xdpi="96" inkscape:export-ydpi="96" inkscape:version="1.3.2 (091e20e, 2023-11-25)" sodipodi:docname="cityScape3-2.svg"
	 xmlns="http://www.w3.org/2000/svg" xmlns:xlink="http://www.w3.org/1999/xlink" x="0px" y="0px" viewBox="0 0 295 130.6"
	 style="enable-background:new 0 0 295 130.6;" xml:space="preserve">
<style type="text/css">
	.st0{fill:#673D67;}
</style>
<sodipodi:namedview  bordercolor="#eeeeee" borderopacity="1" id="namedview1" inkscape:current-layer="layer2" inkscape:cx="514.60808" inkscape:cy="488.84626" inkscape:deskcolor="#505050" inkscape:document-units="mm" inkscape:pagecheckerboard="0" inkscape:pageopacity="0" inkscape:showpageshadow="0" inkscape:window-height="1375" inkscape:window-maximized="0" inkscape:window-width="1920" inkscape:window-x="2814" inkscape:window-y="416" inkscape:zoom="0.7957512" pagecolor="#505050" showguides="true">
	</sodipodi:namedview>
<g id="layer2" transform="translate(-1.0076905,-77.99782)" inkscape:groupmode="layer" inkscape:label="lights">
	
		<path id="rect1" inkscape:export-filename="Documents/projects/portfolio3/portfolio3/src/assets/cityScapeTopLights.svg" inkscape:export-xdpi="96" inkscape:export-ydpi="96" inkscape:label="cityscape" class="st0" d="
		M59.6,125.4l-1.1,0.6v1.3l-0.7,0.8l-0.4,4.9v57.5c0,1.3-1,2.3-2.3,2.3h-0.6c-1.7,0-3.2-1.4-3.2-3.2v-12c0-1.7-1.4-3-3-3h-3.9
		c-1.2,0-2.1-0.9-2.1-2.1v-17.8c0-2-1.6-3.6-3.6-3.6h-0.3c-1.9,0-3.5,1.6-3.5,3.5v30.4c0,1.1-0.9,2-2,2h-0.2c-1.2,0-2.3-1-2.3-2.2
		l-1.1-54.2c0-0.4-0.1-0.7-0.4-1l-0.3-0.4c-0.1-0.2-0.2-0.4-0.2-0.6v-1.6c0-0.6-0.5-1.2-1.2-1.2h0c-0.5,0-0.9-0.4-0.9-0.9v-0.5
		c0-0.6-0.5-1-1-1h-2.4c-0.7,0-1.3-0.6-1.3-1.3v-13.7c0-0.4-0.4-0.8-0.8-0.8h0c-0.5,0-0.9,0.4-0.9,0.9v13.7c0,0.7-0.6,1.2-1.2,1.2
		h-2.6c-0.7,0-1.3,0.6-1.3,1.3v0.1c0,0.6-0.5,1-1,1h-0.2c-0.4,0-0.8,0.4-0.8,0.8v1.6c0,0.4-0.2,0.8-0.4,1l-0.1,0.1
		c-0.3,0.3-0.5,0.7-0.5,1.1V165c0,1.1-0.9,2-2,2H8.4c-1.1,0-2,0.9-2,2v5.7c0,1.3-1,2.3-2.3,2.3h0c-0.8,0-1.4,0.6-1.4,1.4v13.2
		c0,0.6-0.5,1.2-1.2,1.2H1v15.8h295v-15.8h-4c-1.1,0-2-0.9-2-2v-28.2c0-0.8,0.6-1.4,1.4-1.4l0,0c0.7,0,1.3-0.6,1.3-1.3V143
		c0-0.5-0.4-0.9-0.9-0.9l0,0c-1,0-1.8-0.8-1.8-1.8v-19.3c0-0.8-0.7-1.5-1.5-1.5l0,0V104h-0.7v15.6h-11.8c-0.8,0-1.4,0.6-1.4,1.4v1.2
		h-0.1c-1,0-1.9,0.8-1.9,1.9v15.5c0,0.2,0.2,0.4,0.4,0.4l0,0c0.9,0,1.6,0.7,1.6,1.6v19.8c0,0.8-0.6,1.4-1.4,1.4l0,0
		c-0.9,0-1.6,0.7-1.6,1.6v20.9c0,0.7,0.6,1.3,1.3,1.3l0,0c1,0,1.7,0.8,1.7,1.7v4.3h-9.1v-13.9c0-1.2-1-2.2-2.2-2.2h-2.3
		c-1,0-1.8,0.8-1.8,1.8v8.1c0,1-0.8,1.8-1.8,1.8h-4.3c-0.9,0-1.6,0.7-1.6,1.6v0.4h-3v-2.6c0-1-0.8-1.7-1.7-1.7l0,0
		c-0.9,0-1.6-0.7-1.6-1.6l0,0c0-1.3-1.1-2.4-2.4-2.4h-2.4c-1.4,0-2.6-1.2-2.6-2.6v-26.9c0-0.9-0.8-1.7-1.7-1.7l0,0
		c-0.9,0-1.7-0.8-1.7-1.7v-15.8l0,0c-0.9,0-1.7,0.8-1.7,1.7V149c0,1-0.8,1.9-1.9,1.9h-1c-1.2,0-2.1-1-2.1-2.1v-9l0,0
		c-0.9,0-1.7,0.8-1.7,1.7v7.5c0,1.1-0.9,1.9-1.9,1.9l0,0c-1,0-1.8,0.8-1.8,1.8v27.7c0,1-0.8,1.8-1.8,1.8h-1.7c-1,0-1.9,0.8-1.9,1.9
		v0c0,1.2-1,2.2-2.2,2.2h0c-1.2,0-2.2,1-2.2,2.2v1.9c0,1.5-1.2,2.6-2.6,2.6h-0.4c-0.7,0-1.4-0.4-1.7-1l-6.7-11.6c-0.6-1-1.9-1-2.5,0
		l-7.3,12.6l0,0c-1,0-1.9-0.8-1.9-1.9v-6.5c0-1.1-0.9-2-2-2h-0.2c-1.2,0-2.1-1-2.1-2.1v-77.1c0-1.5-1.2-2.7-2.7-2.7l0,0v-6.3
		c0-0.4-0.3-0.7-0.7-0.7l0,0c-0.5,0-1,0.4-1,1v3c0,0.4-0.3,0.7-0.7,0.7h-2.3c-0.7,0-1.2-0.4-1.5-1l-7.1-14.4
		c-0.1-0.2-0.1-0.4-0.1-0.5V78h-0.4v3.9c0,0.4-0.1,0.8-0.3,1.2l-7.1,13.9c-0.3,0.6-1,1.1-1.7,1.1h-2.5c-0.8,0-1.5-0.7-1.5-1.5v-1.9
		c0-0.4-0.3-0.6-0.6-0.6h-0.3c-0.4,0-0.8,0.3-0.8,0.8v5.6l0,0c-1,0-1.9,0.8-1.9,1.9l0,71.9c0,1.4-1.7,2.2-2.7,1.3
		c-2.4-2.2-5.5-3.5-8.8-3.8l-0.9-9.9l-0.9,9.9c-3.9,0.2-7.7,1.9-10.4,4.7c-0.3,0.3-0.8,0.1-0.8-0.3c0-5.1,0-24.6,0-30.7
		c0-1.1-0.9-1.9-1.9-1.9h-2.6c-1.1,0-1.9,0.9-1.9,1.9v8.7c0,1.1-1,1.8-2,1.5l-13.7-4.7c-1.1-0.4-2.3-0.5-3.5-0.4l-0.8,0.1l-1.3,0
		h-7.4c-0.7,0-1.4,0.6-1.4,1.4v4.2c0,0.6-0.5,1.2-1.2,1.2h-1.8c-0.8,0-1.4,0.6-1.4,1.4v7.3h-8.7v-25.8c0-0.2-0.2-0.4-0.4-0.4h0
		c-0.6,0-1-0.4-1-1v-5.4c0-0.2-0.2-0.4-0.4-0.4h-1.3c-0.5,0-0.8-0.4-0.8-0.8l0,0c0-0.4-0.3-0.8-0.8-0.8h-4.2c-0.2,0-0.4-0.2-0.4-0.4
		v-0.7c0-0.4-0.3-0.7-0.7-0.7h-0.6c-0.4,0-0.7-0.3-0.7-0.7V128l-1.1-0.7V126l-0.9-0.5l-0.4-1l-1.2-0.2v-8.5h-1.2v8.5l-1.1,0.2
		 M86,170.7L86,170.7l0,14.1h-8.7v-5.4C77.3,174.6,81.2,170.7,86,170.7z M248.3,191.8h3v1h-3V191.8z"/>
</g>
</svg>
